<svg width="324" height="143" viewBox="0 0 324 143" fill="none" xmlns="http://www.w3.org/2000/svg">
<rect x="26" y="94" width="136" height="43" rx="5" fill="#05BF13"/>
<path d="M26 119L48.5167 137H3.48334L26 119Z" fill="#05BF13"/>
<rect x="298" y="49" width="136" height="43" rx="5" transform="rotate(180 298 49)" fill="#09A114"/>
<path d="M298 24L275.483 6H320.517L298 24Z" fill="#08A013"/>
<path d="M53.4917 58.1172H57.7642V74.7456C57.7642 76.6369 57.354 78.2205 56.5337 79.4966C55.7134 80.7726 54.5968 81.7354 53.1841 82.3848C51.7827 83.0228 50.2161 83.3418 48.4844 83.3418C46.6956 83.3418 45.1006 83.0228 43.6992 82.3848C42.2979 81.7354 41.1927 80.7726 40.3838 79.4966C39.5863 78.2205 39.1875 76.6369 39.1875 74.7456V58.1172H43.46V74.7456C43.46 75.9419 43.665 76.9274 44.0752 77.7021C44.4854 78.4655 45.0664 79.0295 45.8184 79.394C46.5703 79.7586 47.459 79.9409 48.4844 79.9409C49.5098 79.9409 50.3927 79.7586 51.1333 79.394C51.8853 79.0295 52.4663 78.4655 52.8765 77.7021C53.2866 76.9274 53.4917 75.9419 53.4917 74.7456V58.1172ZM84.6185 58.1172V83H80.3289L69.1692 65.1753V83H64.8797V58.1172H69.1692L80.3631 75.9761V58.1172H84.6185ZM99.4073 83H94.0924L94.1266 79.5991H99.4073C100.945 79.5991 102.233 79.263 103.27 78.5908C104.318 77.9186 105.104 76.9559 105.628 75.7026C106.164 74.4494 106.431 72.9569 106.431 71.2251V69.875C106.431 68.5306 106.277 67.34 105.97 66.3032C105.674 65.2664 105.229 64.3949 104.637 63.6885C104.056 62.9821 103.338 62.4466 102.483 62.082C101.64 61.7174 100.666 61.5352 99.5611 61.5352H93.9898V58.1172H99.5611C101.213 58.1172 102.723 58.3963 104.09 58.9546C105.457 59.5015 106.636 60.2933 107.628 61.3301C108.63 62.3669 109.399 63.6087 109.935 65.0557C110.47 66.5026 110.738 68.1204 110.738 69.9092V71.2251C110.738 73.0138 110.47 74.6317 109.935 76.0786C109.399 77.5256 108.63 78.7674 107.628 79.8042C106.625 80.8296 105.429 81.6214 104.039 82.1797C102.66 82.7266 101.116 83 99.4073 83ZM96.4679 58.1172V83H92.1783V58.1172H96.4679ZM133.781 79.5991V83H120.571V79.5991H133.781ZM121.784 58.1172V83H117.495V58.1172H121.784ZM132.055 68.5078V71.8574H120.571V68.5078H132.055ZM133.696 58.1172V61.5352H120.571V58.1172H133.696ZM139.735 58.1172H148.536C150.427 58.1172 152.039 58.402 153.372 58.9717C154.705 59.5413 155.725 60.3844 156.431 61.501C157.149 62.6061 157.508 63.9733 157.508 65.6025C157.508 66.8444 157.28 67.9382 156.824 68.8838C156.369 69.8294 155.725 70.627 154.893 71.2764C154.062 71.9144 153.07 72.41 151.92 72.7632L150.621 73.3955H142.708L142.674 69.9946H148.604C149.63 69.9946 150.484 69.8123 151.168 69.4478C151.851 69.0832 152.364 68.5876 152.706 67.9609C153.059 67.3229 153.236 66.6051 153.236 65.8076C153.236 64.9417 153.065 64.1898 152.723 63.5518C152.392 62.9023 151.88 62.4067 151.185 62.0649C150.49 61.7118 149.607 61.5352 148.536 61.5352H144.024V83H139.735V58.1172ZM153.936 83L148.092 71.8232L152.586 71.8062L158.516 82.7778V83H153.936ZM177.321 76.5913C177.321 76.0786 177.242 75.6229 177.082 75.2241C176.934 74.8254 176.666 74.4608 176.279 74.1304C175.891 73.8 175.345 73.481 174.638 73.1733C173.943 72.8543 173.055 72.5296 171.972 72.1992C170.787 71.8346 169.694 71.4302 168.691 70.9858C167.7 70.5301 166.834 70.006 166.093 69.4136C165.353 68.8097 164.777 68.1204 164.367 67.3457C163.957 66.5596 163.752 65.6538 163.752 64.6284C163.752 63.6144 163.963 62.6916 164.384 61.8599C164.817 61.0282 165.427 60.3104 166.213 59.7065C167.01 59.0913 167.95 58.6185 169.033 58.2881C170.115 57.9463 171.311 57.7754 172.622 57.7754C174.467 57.7754 176.057 58.1172 177.39 58.8008C178.734 59.4844 179.765 60.4015 180.483 61.5522C181.212 62.703 181.577 63.9733 181.577 65.3633H177.321C177.321 64.543 177.145 63.8195 176.792 63.1929C176.45 62.5549 175.926 62.0535 175.219 61.689C174.524 61.3244 173.641 61.1421 172.57 61.1421C171.556 61.1421 170.713 61.2959 170.041 61.6035C169.369 61.9111 168.868 62.327 168.537 62.8511C168.207 63.3752 168.042 63.9676 168.042 64.6284C168.042 65.0955 168.15 65.5228 168.366 65.9102C168.583 66.2861 168.913 66.6393 169.357 66.9697C169.802 67.2887 170.36 67.5907 171.032 67.8755C171.704 68.1603 172.496 68.4338 173.408 68.6958C174.786 69.106 175.988 69.5617 177.014 70.063C178.039 70.5529 178.894 71.1112 179.577 71.7378C180.261 72.3644 180.773 73.0765 181.115 73.874C181.457 74.6602 181.628 75.5545 181.628 76.5571C181.628 77.6053 181.417 78.5509 180.996 79.394C180.574 80.2257 179.97 80.9378 179.184 81.5303C178.409 82.1113 177.475 82.5614 176.381 82.8804C175.299 83.188 174.091 83.3418 172.758 83.3418C171.562 83.3418 170.383 83.1823 169.221 82.8633C168.07 82.5443 167.022 82.0601 166.076 81.4106C165.131 80.7498 164.379 79.9295 163.82 78.9497C163.262 77.9585 162.983 76.8021 162.983 75.4805H167.272C167.272 76.2894 167.409 76.9787 167.683 77.5483C167.967 78.118 168.361 78.5851 168.862 78.9497C169.363 79.3029 169.944 79.5649 170.605 79.7358C171.277 79.9067 171.995 79.9922 172.758 79.9922C173.761 79.9922 174.598 79.8498 175.271 79.5649C175.954 79.2801 176.467 78.8813 176.809 78.3687C177.15 77.856 177.321 77.2635 177.321 76.5913ZM198.109 58.1172V83H193.853V58.1172H198.109ZM205.919 58.1172V61.5352H186.112V58.1172H205.919ZM219.699 61.4326L212.265 83H207.771L217.136 58.1172H220.007L219.699 61.4326ZM225.92 83L218.469 61.4326L218.144 58.1172H221.032L230.432 83H225.92ZM225.561 73.7715V77.1724H212.026V73.7715H225.561ZM255.406 58.1172V83H251.117L239.957 65.1753V83H235.667V58.1172H239.957L251.151 75.9761V58.1172H255.406ZM270.195 83H264.88L264.914 79.5991H270.195C271.733 79.5991 273.021 79.263 274.057 78.5908C275.106 77.9186 275.892 76.9559 276.416 75.7026C276.951 74.4494 277.219 72.9569 277.219 71.2251V69.875C277.219 68.5306 277.065 67.34 276.758 66.3032C276.461 65.2664 276.017 64.3949 275.425 63.6885C274.843 62.9821 274.126 62.4466 273.271 62.082C272.428 61.7174 271.454 61.5352 270.349 61.5352H264.778V58.1172H270.349C272.001 58.1172 273.51 58.3963 274.878 58.9546C276.245 59.5015 277.424 60.2933 278.415 61.3301C279.418 62.3669 280.187 63.6087 280.722 65.0557C281.258 66.5026 281.526 68.1204 281.526 69.9092V71.2251C281.526 73.0138 281.258 74.6317 280.722 76.0786C280.187 77.5256 279.418 78.7674 278.415 79.8042C277.413 80.8296 276.216 81.6214 274.826 82.1797C273.448 82.7266 271.904 83 270.195 83ZM267.256 58.1172V83H262.966V58.1172H267.256Z" fill="#5DE167"/>
</svg>
