<svg width="324" height="143" viewBox="0 0 324 143" fill="none" xmlns="http://www.w3.org/2000/svg">
<rect x="26" y="94" width="136" height="43" rx="5" fill="#BF3D05"/>
<path d="M26 119L48.5167 137H3.48334L26 119Z" fill="#BF3D05"/>
<rect x="298" y="49" width="136" height="43" rx="5" transform="rotate(180 298 49)" fill="#A00808"/>
<path d="M298 24L275.483 6H320.517L298 24Z" fill="#A00808"/>
<path d="M56.0777 70.125V70.9453C56.0777 72.0732 55.9307 73.085 55.6368 73.9805C55.3428 74.876 54.9224 75.6382 54.3756 76.2671C53.8355 76.896 53.1861 77.3779 52.4273 77.7129C51.6685 78.041 50.8277 78.2051 49.9049 78.2051C48.9888 78.2051 48.1514 78.041 47.3927 77.7129C46.6407 77.3779 45.9879 76.896 45.4342 76.2671C44.8804 75.6382 44.4498 74.876 44.1422 73.9805C43.8414 73.085 43.691 72.0732 43.691 70.9453V70.125C43.691 68.9971 43.8414 67.9888 44.1422 67.1001C44.4429 66.2046 44.8668 65.4424 45.4137 64.8135C45.9674 64.1777 46.6202 63.6958 47.3721 63.3677C48.1309 63.0327 48.9683 62.8652 49.8844 62.8652C50.8072 62.8652 51.648 63.0327 52.4068 63.3677C53.1656 63.6958 53.8184 64.1777 54.3653 64.8135C54.9122 65.4424 55.3326 66.2046 55.6265 67.1001C55.9273 67.9888 56.0777 68.9971 56.0777 70.125ZM53.504 70.9453V70.1045C53.504 69.2705 53.422 68.5356 53.2579 67.8999C53.1007 67.2573 52.8648 66.7207 52.5504 66.29C52.2428 65.8525 51.8634 65.5244 51.4122 65.3057C50.961 65.0801 50.4517 64.9673 49.8844 64.9673C49.317 64.9673 48.8111 65.0801 48.3668 65.3057C47.9224 65.5244 47.543 65.8525 47.2286 66.29C46.921 66.7207 46.6851 67.2573 46.5211 67.8999C46.357 68.5356 46.275 69.2705 46.275 70.1045V70.9453C46.275 71.7793 46.357 72.5176 46.5211 73.1602C46.6851 73.8027 46.9244 74.3462 47.2388 74.7905C47.5601 75.228 47.9429 75.5596 48.3873 75.7852C48.8316 76.0039 49.3375 76.1133 49.9049 76.1133C50.4791 76.1133 50.9884 76.0039 51.4327 75.7852C51.877 75.5596 52.253 75.228 52.5606 74.7905C52.8682 74.3462 53.1007 73.8027 53.2579 73.1602C53.422 72.5176 53.504 71.7793 53.504 70.9453ZM69.0862 70.125V70.9453C69.0862 72.0732 68.9393 73.085 68.6453 73.9805C68.3514 74.876 67.931 75.6382 67.3841 76.2671C66.844 76.896 66.1946 77.3779 65.4358 77.7129C64.677 78.041 63.8362 78.2051 62.9134 78.2051C61.9974 78.2051 61.16 78.041 60.4012 77.7129C59.6492 77.3779 58.9964 76.896 58.4427 76.2671C57.889 75.6382 57.4583 74.876 57.1507 73.9805C56.8499 73.085 56.6995 72.0732 56.6995 70.9453V70.125C56.6995 68.9971 56.8499 67.9888 57.1507 67.1001C57.4515 66.2046 57.8753 65.4424 58.4222 64.8135C58.9759 64.1777 59.6287 63.6958 60.3807 63.3677C61.1395 63.0327 61.9769 62.8652 62.8929 62.8652C63.8157 62.8652 64.6565 63.0327 65.4153 63.3677C66.1741 63.6958 66.827 64.1777 67.3738 64.8135C67.9207 65.4424 68.3411 66.2046 68.6351 67.1001C68.9358 67.9888 69.0862 68.9971 69.0862 70.125ZM66.5125 70.9453V70.1045C66.5125 69.2705 66.4305 68.5356 66.2664 67.8999C66.1092 67.2573 65.8733 66.7207 65.5589 66.29C65.2513 65.8525 64.8719 65.5244 64.4207 65.3057C63.9695 65.0801 63.4603 64.9673 62.8929 64.9673C62.3255 64.9673 61.8196 65.0801 61.3753 65.3057C60.931 65.5244 60.5516 65.8525 60.2371 66.29C59.9295 66.7207 59.6936 67.2573 59.5296 67.8999C59.3655 68.5356 59.2835 69.2705 59.2835 70.1045V70.9453C59.2835 71.7793 59.3655 72.5176 59.5296 73.1602C59.6936 73.8027 59.9329 74.3462 60.2474 74.7905C60.5686 75.228 60.9515 75.5596 61.3958 75.7852C61.8401 76.0039 62.346 76.1133 62.9134 76.1133C63.4876 76.1133 63.9969 76.0039 64.4412 75.7852C64.8855 75.5596 65.2615 75.228 65.5691 74.7905C65.8768 74.3462 66.1092 73.8027 66.2664 73.1602C66.4305 72.5176 66.5125 71.7793 66.5125 70.9453ZM75.8604 72.4321H71.9741V70.3916H75.8604C76.5371 70.3916 77.084 70.2822 77.501 70.0635C77.918 69.8447 78.2222 69.5439 78.4136 69.1611C78.6118 68.7715 78.711 68.3271 78.711 67.8281C78.711 67.3564 78.6118 66.9155 78.4136 66.5054C78.2222 66.0884 77.918 65.7534 77.501 65.5005C77.084 65.2476 76.5371 65.1211 75.8604 65.1211H72.7637V78H70.19V63.0703H75.8604C77.0156 63.0703 77.9966 63.2754 78.8032 63.6855C79.6167 64.0889 80.2354 64.6494 80.6592 65.3672C81.083 66.0781 81.2949 66.8916 81.2949 67.8076C81.2949 68.7715 81.083 69.5986 80.6592 70.2891C80.2354 70.9795 79.6167 71.5093 78.8032 71.8784C77.9966 72.2476 77.0156 72.4321 75.8604 72.4321ZM89.9866 74.1548C89.9866 73.8472 89.9387 73.5737 89.843 73.3345C89.7541 73.0952 89.5935 72.8765 89.3611 72.6782C89.1287 72.48 88.8005 72.2886 88.3767 72.104C87.9597 71.9126 87.4265 71.7178 86.7771 71.5195C86.0662 71.3008 85.4099 71.0581 84.8083 70.7915C84.2136 70.5181 83.6941 70.2036 83.2497 69.8481C82.8054 69.4858 82.4602 69.0723 82.2141 68.6074C81.968 68.1357 81.845 67.5923 81.845 66.9771C81.845 66.3687 81.9714 65.8149 82.2244 65.3159C82.4841 64.8169 82.8498 64.3862 83.3215 64.0239C83.8 63.6548 84.364 63.3711 85.0134 63.1729C85.6628 62.9678 86.3806 62.8652 87.1667 62.8652C88.2742 62.8652 89.2278 63.0703 90.0276 63.4805C90.8342 63.8906 91.4529 64.4409 91.8835 65.1313C92.321 65.8218 92.5398 66.584 92.5398 67.418H89.9866C89.9866 66.9258 89.8806 66.4917 89.6687 66.1157C89.4636 65.7329 89.1492 65.4321 88.7253 65.2134C88.3083 64.9946 87.7786 64.8853 87.136 64.8853C86.5276 64.8853 86.0217 64.9775 85.6184 65.1621C85.2151 65.3467 84.9143 65.5962 84.7161 65.9106C84.5178 66.2251 84.4187 66.5806 84.4187 66.9771C84.4187 67.2573 84.4836 67.5137 84.6135 67.7461C84.7434 67.9717 84.9416 68.1836 85.2082 68.3818C85.4748 68.5732 85.8098 68.7544 86.2131 68.9253C86.6164 69.0962 87.0915 69.2603 87.6384 69.4175C88.4656 69.6636 89.1868 69.937 89.802 70.2378C90.4172 70.5317 90.9299 70.8667 91.3401 71.2427C91.7502 71.6187 92.0578 72.0459 92.2629 72.5244C92.468 72.9961 92.5705 73.5327 92.5705 74.1343C92.5705 74.7632 92.4441 75.3306 92.1912 75.8364C91.9382 76.3354 91.5759 76.7627 91.1042 77.1182C90.6394 77.4668 90.0788 77.7368 89.4226 77.9282C88.7732 78.1128 88.0486 78.2051 87.2488 78.2051C86.531 78.2051 85.8235 78.1094 85.1262 77.918C84.4358 77.7266 83.8069 77.436 83.2395 77.0464C82.6721 76.6499 82.2209 76.1577 81.886 75.5698C81.551 74.9751 81.3835 74.2812 81.3835 73.4883H83.9573C83.9573 73.9736 84.0393 74.3872 84.2034 74.729C84.3743 75.0708 84.6101 75.3511 84.9109 75.5698C85.2117 75.7817 85.5603 75.939 85.9568 76.0415C86.3601 76.144 86.7908 76.1953 87.2488 76.1953C87.8503 76.1953 88.3528 76.1099 88.7561 75.939C89.1662 75.7681 89.4739 75.5288 89.6789 75.2212C89.884 74.9136 89.9866 74.5581 89.9866 74.1548ZM93.2334 76.7695C93.2334 76.3867 93.3632 76.0654 93.623 75.8057C93.8828 75.5391 94.2348 75.4058 94.6792 75.4058C95.1303 75.4058 95.4824 75.5391 95.7353 75.8057C95.9951 76.0654 96.125 76.3867 96.125 76.7695C96.125 77.1523 95.9951 77.4736 95.7353 77.7334C95.4824 77.9932 95.1303 78.123 94.6792 78.123C94.2348 78.123 93.8828 77.9932 93.623 77.7334C93.3632 77.4736 93.2334 77.1523 93.2334 76.7695ZM97.6081 76.7695C97.6081 76.3867 97.738 76.0654 97.9977 75.8057C98.2575 75.5391 98.6096 75.4058 99.0539 75.4058C99.5051 75.4058 99.8571 75.5391 100.11 75.8057C100.37 76.0654 100.5 76.3867 100.5 76.7695C100.5 77.1523 100.37 77.4736 100.11 77.7334C99.8571 77.9932 99.5051 78.123 99.0539 78.123C98.6096 78.123 98.2575 77.9932 97.9977 77.7334C97.738 77.4736 97.6081 77.1523 97.6081 76.7695ZM101.983 76.7695C101.983 76.3867 102.113 76.0654 102.372 75.8057C102.632 75.5391 102.984 75.4058 103.429 75.4058C103.88 75.4058 104.232 75.5391 104.485 75.8057C104.745 76.0654 104.874 76.3867 104.874 76.7695C104.874 77.1523 104.745 77.4736 104.485 77.7334C104.232 77.9932 103.88 78.123 103.429 78.123C102.984 78.123 102.632 77.9932 102.372 77.7334C102.113 77.4736 101.983 77.1523 101.983 76.7695ZM118.115 74.1548C118.115 73.8472 118.067 73.5737 117.972 73.3345C117.883 73.0952 117.722 72.8765 117.49 72.6782C117.257 72.48 116.929 72.2886 116.505 72.104C116.088 71.9126 115.555 71.7178 114.906 71.5195C114.195 71.3008 113.538 71.0581 112.937 70.7915C112.342 70.5181 111.823 70.2036 111.378 69.8481C110.934 69.4858 110.589 69.0723 110.343 68.6074C110.097 68.1357 109.973 67.5923 109.973 66.9771C109.973 66.3687 110.1 65.8149 110.353 65.3159C110.613 64.8169 110.978 64.3862 111.45 64.0239C111.929 63.6548 112.493 63.3711 113.142 63.1729C113.791 62.9678 114.509 62.8652 115.295 62.8652C116.403 62.8652 117.356 63.0703 118.156 63.4805C118.963 63.8906 119.581 64.4409 120.012 65.1313C120.45 65.8218 120.668 66.584 120.668 67.418H118.115C118.115 66.9258 118.009 66.4917 117.797 66.1157C117.592 65.7329 117.278 65.4321 116.854 65.2134C116.437 64.9946 115.907 64.8853 115.264 64.8853C114.656 64.8853 114.15 64.9775 113.747 65.1621C113.344 65.3467 113.043 65.5962 112.845 65.9106C112.646 66.2251 112.547 66.5806 112.547 66.9771C112.547 67.2573 112.612 67.5137 112.742 67.7461C112.872 67.9717 113.07 68.1836 113.337 68.3818C113.603 68.5732 113.938 68.7544 114.342 68.9253C114.745 69.0962 115.22 69.2603 115.767 69.4175C116.594 69.6636 117.315 69.937 117.931 70.2378C118.546 70.5317 119.058 70.8667 119.469 71.2427C119.879 71.6187 120.186 72.0459 120.391 72.5244C120.597 72.9961 120.699 73.5327 120.699 74.1343C120.699 74.7632 120.573 75.3306 120.32 75.8364C120.067 76.3354 119.704 76.7627 119.233 77.1182C118.768 77.4668 118.207 77.7368 117.551 77.9282C116.902 78.1128 116.177 78.2051 115.377 78.2051C114.66 78.2051 113.952 78.1094 113.255 77.918C112.564 77.7266 111.935 77.436 111.368 77.0464C110.801 76.6499 110.349 76.1577 110.014 75.5698C109.68 74.9751 109.512 74.2812 109.512 73.4883H112.086C112.086 73.9736 112.168 74.3872 112.332 74.729C112.503 75.0708 112.739 75.3511 113.039 75.5698C113.34 75.7817 113.689 75.939 114.085 76.0415C114.489 76.144 114.919 76.1953 115.377 76.1953C115.979 76.1953 116.481 76.1099 116.885 75.939C117.295 75.7681 117.602 75.5288 117.807 75.2212C118.013 74.9136 118.115 74.5581 118.115 74.1548ZM133.41 70.125V70.9453C133.41 72.0732 133.263 73.085 132.969 73.9805C132.675 74.876 132.255 75.6382 131.708 76.2671C131.168 76.896 130.519 77.3779 129.76 77.7129C129.001 78.041 128.16 78.2051 127.237 78.2051C126.321 78.2051 125.484 78.041 124.725 77.7129C123.973 77.3779 123.32 76.896 122.767 76.2671C122.213 75.6382 121.782 74.876 121.475 73.9805C121.174 73.085 121.023 72.0732 121.023 70.9453V70.125C121.023 68.9971 121.174 67.9888 121.475 67.1001C121.775 66.2046 122.199 65.4424 122.746 64.8135C123.3 64.1777 123.953 63.6958 124.705 63.3677C125.463 63.0327 126.301 62.8652 127.217 62.8652C128.14 62.8652 128.981 63.0327 129.739 63.3677C130.498 63.6958 131.151 64.1777 131.698 64.8135C132.245 65.4424 132.665 66.2046 132.959 67.1001C133.26 67.9888 133.41 68.9971 133.41 70.125ZM130.836 70.9453V70.1045C130.836 69.2705 130.754 68.5356 130.59 67.8999C130.433 67.2573 130.197 66.7207 129.883 66.29C129.575 65.8525 129.196 65.5244 128.745 65.3057C128.294 65.0801 127.784 64.9673 127.217 64.9673C126.649 64.9673 126.144 65.0801 125.699 65.3057C125.255 65.5244 124.876 65.8525 124.561 66.29C124.253 66.7207 124.018 67.2573 123.854 67.8999C123.69 68.5356 123.607 69.2705 123.607 70.1045V70.9453C123.607 71.7793 123.69 72.5176 123.854 73.1602C124.018 73.8027 124.257 74.3462 124.571 74.7905C124.893 75.228 125.275 75.5596 125.72 75.7852C126.164 76.0039 126.67 76.1133 127.237 76.1133C127.812 76.1133 128.321 76.0039 128.765 75.7852C129.21 75.5596 129.586 75.228 129.893 74.7905C130.201 74.3462 130.433 73.8027 130.59 73.1602C130.754 72.5176 130.836 71.7793 130.836 70.9453ZM135.56 63.0703H137.857L142.174 74.5854L146.48 63.0703H148.777L143.076 78H141.251L135.56 63.0703ZM134.514 63.0703H136.698L137.077 73.0371V78H134.514V63.0703ZM147.639 63.0703H149.833V78H147.26V73.0371L147.639 63.0703ZM161.191 75.9595V78H153.265V75.9595H161.191ZM153.993 63.0703V78H151.419V63.0703H153.993ZM160.155 69.3047V71.3145H153.265V69.3047H160.155ZM161.14 63.0703V65.1211H153.265V63.0703H161.14ZM168.17 63.0703V78H165.617V63.0703H168.17ZM172.856 63.0703V65.1211H160.972V63.0703H172.856ZM183.219 69.3047V71.3452H175.293V69.3047H183.219ZM175.929 63.0703V78H173.355V63.0703H175.929ZM185.198 63.0703V78H182.635V63.0703H185.198ZM189.542 63.0703V78H186.968V63.0703H189.542ZM203.115 63.0703V78H200.541L193.845 67.3052V78H191.271V63.0703H193.845L200.561 73.7856V63.0703H203.115ZM216.174 70.3711V76.0723C215.962 76.3525 215.631 76.6602 215.18 76.9951C214.735 77.3232 214.144 77.6069 213.406 77.8462C212.668 78.0854 211.748 78.2051 210.648 78.2051C209.711 78.2051 208.853 78.0479 208.074 77.7334C207.295 77.4121 206.621 76.9438 206.054 76.3286C205.493 75.7134 205.059 74.9648 204.752 74.083C204.444 73.1943 204.29 72.1826 204.29 71.0479V70.0122C204.29 68.8843 204.43 67.8794 204.711 66.9976C204.998 66.1089 205.408 65.3569 205.941 64.7417C206.474 64.1265 207.117 63.6616 207.869 63.3472C208.628 63.0259 209.485 62.8652 210.442 62.8652C211.666 62.8652 212.678 63.0703 213.478 63.4805C214.284 63.8838 214.906 64.4443 215.344 65.1621C215.781 65.8799 216.058 66.7002 216.174 67.623H213.652C213.57 67.1035 213.409 66.6387 213.17 66.2285C212.938 65.8184 212.603 65.4971 212.165 65.2646C211.734 65.0254 211.174 64.9058 210.483 64.9058C209.889 64.9058 209.366 65.0186 208.915 65.2441C208.463 65.4697 208.087 65.8013 207.787 66.2388C207.493 66.6763 207.271 67.2095 207.12 67.8384C206.97 68.4673 206.895 69.1851 206.895 69.9917V71.0479C206.895 71.8682 206.98 72.5962 207.151 73.2319C207.329 73.8677 207.582 74.4043 207.91 74.8418C208.245 75.2793 208.651 75.6108 209.13 75.8364C209.608 76.0552 210.149 76.1646 210.75 76.1646C211.338 76.1646 211.82 76.1167 212.196 76.021C212.572 75.9185 212.869 75.7988 213.088 75.6621C213.314 75.5186 213.488 75.3818 213.611 75.252V72.2886H210.504V70.3711H216.174ZM225.057 74.647L228.031 63.0703H229.589L229.415 66.0542L226.236 78H224.616L225.057 74.647ZM222.832 63.0703L225.242 74.5547L225.457 78H223.734L220.279 63.0703H222.832ZM232.963 74.5239L235.342 63.0703H237.905L234.45 78H232.727L232.963 74.5239ZM230.194 63.0703L233.137 74.6777L233.568 78H231.948L228.82 66.0542L228.656 63.0703H230.194ZM238.343 63.0703H243.623C244.758 63.0703 245.725 63.2412 246.525 63.583C247.325 63.9248 247.937 64.4307 248.361 65.1006C248.791 65.7637 249.007 66.584 249.007 67.5615C249.007 68.3066 248.87 68.9629 248.596 69.5303C248.323 70.0977 247.937 70.5762 247.438 70.9658C246.939 71.3486 246.344 71.646 245.654 71.8579L244.874 72.2373H240.127L240.106 70.1968H243.664C244.28 70.1968 244.792 70.0874 245.202 69.8687C245.613 69.6499 245.92 69.3525 246.125 68.9766C246.337 68.5938 246.443 68.1631 246.443 67.6846C246.443 67.165 246.341 66.7139 246.135 66.3311C245.937 65.9414 245.63 65.644 245.213 65.439C244.796 65.2271 244.266 65.1211 243.623 65.1211H240.916V78H238.343V63.0703ZM246.864 78L243.357 71.2939L246.053 71.2837L249.612 77.8667V78H246.864ZM262.005 70.125V70.9453C262.005 72.0732 261.858 73.085 261.564 73.9805C261.27 74.876 260.85 75.6382 260.303 76.2671C259.763 76.896 259.113 77.3779 258.354 77.7129C257.596 78.041 256.755 78.2051 255.832 78.2051C254.916 78.2051 254.079 78.041 253.32 77.7129C252.568 77.3779 251.915 76.896 251.361 76.2671C250.808 75.6382 250.377 74.876 250.069 73.9805C249.769 73.085 249.618 72.0732 249.618 70.9453V70.125C249.618 68.9971 249.769 67.9888 250.069 67.1001C250.37 66.2046 250.794 65.4424 251.341 64.8135C251.895 64.1777 252.547 63.6958 253.299 63.3677C254.058 63.0327 254.895 62.8652 255.812 62.8652C256.734 62.8652 257.575 63.0327 258.334 63.3677C259.093 63.6958 259.746 64.1777 260.292 64.8135C260.839 65.4424 261.26 66.2046 261.554 67.1001C261.854 67.9888 262.005 68.9971 262.005 70.125ZM259.431 70.9453V70.1045C259.431 69.2705 259.349 68.5356 259.185 67.8999C259.028 67.2573 258.792 66.7207 258.478 66.29C258.17 65.8525 257.791 65.5244 257.339 65.3057C256.888 65.0801 256.379 64.9673 255.812 64.9673C255.244 64.9673 254.738 65.0801 254.294 65.3057C253.85 65.5244 253.47 65.8525 253.156 66.29C252.848 66.7207 252.612 67.2573 252.448 67.8999C252.284 68.5356 252.202 69.2705 252.202 70.1045V70.9453C252.202 71.7793 252.284 72.5176 252.448 73.1602C252.612 73.8027 252.852 74.3462 253.166 74.7905C253.487 75.228 253.87 75.5596 254.314 75.7852C254.759 76.0039 255.265 76.1133 255.832 76.1133C256.406 76.1133 256.916 76.0039 257.36 75.7852C257.804 75.5596 258.18 75.228 258.488 74.7905C258.795 74.3462 259.028 73.8027 259.185 73.1602C259.349 72.5176 259.431 71.7793 259.431 70.9453ZM274.952 63.0703V78H272.378L265.682 67.3052V78H263.109V63.0703H265.682L272.399 73.7856V63.0703H274.952ZM288.012 70.3711V76.0723C287.8 76.3525 287.468 76.6602 287.017 76.9951C286.573 77.3232 285.981 77.6069 285.243 77.8462C284.505 78.0854 283.585 78.2051 282.485 78.2051C281.548 78.2051 280.69 78.0479 279.911 77.7334C279.132 77.4121 278.458 76.9438 277.891 76.3286C277.33 75.7134 276.896 74.9648 276.589 74.083C276.281 73.1943 276.127 72.1826 276.127 71.0479V70.0122C276.127 68.8843 276.268 67.8794 276.548 66.9976C276.835 66.1089 277.245 65.3569 277.778 64.7417C278.311 64.1265 278.954 63.6616 279.706 63.3472C280.465 63.0259 281.323 62.8652 282.28 62.8652C283.503 62.8652 284.515 63.0703 285.315 63.4805C286.122 63.8838 286.744 64.4443 287.181 65.1621C287.619 65.8799 287.895 66.7002 288.012 67.623H285.489C285.407 67.1035 285.247 66.6387 285.007 66.2285C284.775 65.8184 284.44 65.4971 284.002 65.2646C283.572 65.0254 283.011 64.9058 282.321 64.9058C281.726 64.9058 281.203 65.0186 280.752 65.2441C280.301 65.4697 279.925 65.8013 279.624 66.2388C279.33 66.6763 279.108 67.2095 278.957 67.8384C278.807 68.4673 278.732 69.1851 278.732 69.9917V71.0479C278.732 71.8682 278.817 72.5962 278.988 73.2319C279.166 73.8677 279.419 74.4043 279.747 74.8418C280.082 75.2793 280.489 75.6108 280.967 75.8364C281.446 76.0552 281.986 76.1646 282.587 76.1646C283.175 76.1646 283.657 76.1167 284.033 76.021C284.409 75.9185 284.706 75.7988 284.925 75.6621C285.151 75.5186 285.325 75.3818 285.448 75.252V72.2886H282.341V70.3711H288.012Z" fill="#E16C5D"/>
</svg>
